<svg xmlns="http://www.w3.org/2000/svg" viewBox="0 0 64 64">
  <!-- ARIA's tab icon (04/10): a note of an aria (an eighth) in a house, in the Âmbar theme's colours -->
  <defs>
    <linearGradient id="tile" x1="0" y1="0" x2="1" y2="1">
      <stop offset="0" stop-color="#dc8a33"/>
      <stop offset="1" stop-color="#8f4a12"/>
    </linearGradient>
  </defs>
  <rect width="64" height="64" rx="14" fill="url(#tile)"/>
  <rect x="42" y="12" width="7" height="14" rx="1" fill="#fffaf3"/>
  <path d="M32 8.5 58 30.5H51.5V54.5a1.5 1.5 0 0 1-1.5 1.5H14a1.5 1.5 0 0 1-1.5-1.5V30.5H6Z" fill="#fffaf3"
        stroke="#fffaf3" stroke-width="2.5" stroke-linejoin="round"/>
  <g fill="#8f4a12">
    <ellipse cx="27.5" cy="46.5" rx="6.8" ry="5" transform="rotate(-22 27.5 46.5)"/>
    <rect x="30.5" y="18.5" width="3.6" height="28.0"/>
    <path d="M34.1 18.5C34.7 23 44.2 25.6 44.2 32.8C44.2 34.8 43.4 36.5 42.4 37.7C43.2 31.8 38.2 29.2 34.1 27.4Z"/>
  </g>
</svg>
